/* XPM */
static const char *SDL_icon_xpm[] = {
/* columns rows colors chars-per-pixel */
"64 64 32 1",
" 	c None",
".	c #E7E7E7",
"+	c #DFDFDF",
"@	c #AFAFAF",
"#	c #979797",
"$	c #8F8F8F",
"%	c #B7B7B7",
"&	c #F7F7F7",
"*	c #D7D7D7",
"=	c #4F4F4F",
"-	c #0F0F0F",
";	c #070707",
">	c #575757",
",	c #C7C7C7",
"'	c #676767",
")	c #7F7F7F",
"!	c #5F5F5F",
"~	c #777777",
"{	c #474747",
"]	c #878787",
"^	c #6F6F6F",
"/	c #BFBFBF",
"(	c #373737",
"_	c #1F1F1F",
":	c #272727",
"<	c #2F2F2F",
"[	c #3F3F3F",
"}	c #EFEFEF",
"|	c #A7A7A7",
"1	c #9F9F9F",
"2	c #171717",
"3	c #CFCFCF",
"                                                                ",
"                       ....................                     ",
"                     ...+@##$$$$###@%&.......                   ",
"                    ..*=-;;;-;;;;;;;;@........                  ",
"                   ..+-;;;;--;;;;;;;>..........                 ",
"                  ...,')!!'~>{!)$)>'....*]>^%&..                ",
"                 ../(__(>:{<)$![[[%&...^!!!!!~*.                ",
"                ..@;;;;;({=]:;;;;;~..*_;;;;;;;_..               ",
"                .}>;;;;;^#=;;;;;;>...<;;;;;;;;;|..              ",
"               ..*1)))))%]))))))%&..1])))))))))#}.              ",
"              ..%[;;;;;[2;;;;;;;:..#;;;2[[-;;;;;=..             ",
"              .&:;[{;;;{;;;~={:;^.._;;'}...>;;;;;,.             ",
"              .}<;;:{;_:2!'-;;;]*.&(_].|{=@.~___[/..            ",
"             ..*$))]@%//,111111}..|1*.@1111@.3111|&.            ",
"             .,:;;;;;'#^;;;;;;;]./;;+);;;;;;$*;;;;..            ",
"             .^;;;;;;));;;;;;;;$.~;$*;;;;;;;-+^;;;#.            ",
"            ..$;;;;;;>;;;;;;;;>}.^-.!;;;;;;;;)*:;;|.            ",
"            .&@$|#)))|)))1||#]+..$/}]))))))))$.3))#..           ",
"            .#;;;[{;->;-^[;;;;].~;@];;;;;;;;;;1#;;-}.           ",
"            .{;;;;{<[:(~-;;;;;$.(-.<;;;;;;;;;;{};;;3.           ",
"           ..);;;;;~~[!;;;;;;-/.>=.>;;;;;;;;;;2}^;:3.           ",
"           .&#)))))$}@)))))))@.}]3.*))))))))))).,))..           ",
"           .3;;;;;;;);;;;;;;;2+|;%.';;;;;;;;;;;]1;;1.           ",
"           .1_(:;;;;{;;;[=[:;;.];}.);;;;;;;;;;;=,;;].           ",
"           .%2-(!2;2{;_':;;;;).1;..+:;;;;;;;;;;_.;;1.           ",
"           .+))))@1$1#@))))))3.,@...1))))))))))].1#3.           ",
"           .{;;;;;^<>);;;;;;;-.[). .-;;;;;;;;;;;3{;#.           ",
"           ._;;;;;-~];;;;;;;;;};#. ._;;;;;;;;;;;/^;#.           ",
"           .$'!!!!!1]!!!!!!!!%}[,. .'[[[[[[[[[[[,|>}.           ",
"          ..'{::___!{___:(>___:[@...~[[[[[[[[[[[1#{,.           ",
"          .+;-<=(;;[:;;(=-;;;;;;;;;;;;;;;;;;;;;;;;;).           ",
"          .*;;;;[=;[_;{(;;;;;;;;;;;;;;;;;;;;;;;;;;-#.           ",
"          .&)!!!!)$]~)$!!!!!!!!!!!!!!!!!!!!!!!!!!!^+.           ",
"          .&(_____!$)!____________________________<3.           ",
"          .%;;;;;;;@|;;;;;;;;;;;;==))))))))))))))]*&.           ",
"          .*22;;;;;({;;;;;_-;;;;%.&..................           ",
"          .&+~#]!!!~]!=[!^>[[[[{}...                            ",
"          ../__:^^:(!_[$>[[[[[[{+.                              ",
"           .<;;;;<^2{;'2;;;;;;;;].                              ",
"           .;;;;;;:~=>:;;;;;;;;;].                              ",
"           .@!!!!!!]3|!!!!!!!!!!*.                              ",
"           .#_______#_____:<____~..                             ",
"           .^_{[_;;;=2;;;<<-;;;;;,..................            ",
"           .@<;;{~2;_>;;((;;;;;;;3,-----------|.$-!.            ",
"           ..@))))|@)|)$|)))))))#}&/))))))))))}./)/.            ",
"           .&:;;;;;=>>;^;;;;;;;;;_.[;;;;;;;;;;^.{;|.            ",
"           ..2;;;;;;{#<[;;;;;;;;;;+';;;;;;;;;;~*;;..            ",
"            .^;;;;;;;'%;;;;;;;;;;{&}#;;;;;;;;[+|;-..            ",
"            .&3$1$))))%))))1]))))]+&}$))))))@&./)@.             ",
"            ..(;_<'{;;(-;;[2;;;;;;-@3;;;;;;;_}};;~.             ",
"             .=;;;;:~<-(;-[;;;;;;;;:.=;;;;;;>.!;;,.             ",
"             ./:;;;;;!!!;=-;;;;;;;;>.+$;;;;[.&_;=..             ",
"             ..&|)))))$,|%)))))))))]1&.|]]@&.|]]}.              ",
"              .&;;;;;;;:@=;;;;;;;;;;;-/....3:;;;}.              ",
"              ..!;;;;;;;([;;;;_2;;;;;;;>)){;;;;^..              ",
"               ..=2_:-;;;(;;;2<;;;;;;;;;;;;;;-)..               ",
"                ...%$#@%#)#))|))))))))))))))|}&.                ",
"                 ..!;;;2!]{_-[;;;;;;;;;;;;;;;&..                ",
"                  ..^-;;;;^)(:;;;;;;;;;;;;;;'..                 ",
"                   ..*'-;;;:]-;;;;;;;;;;;;-$..                  ",
"                    ....}./1))))))))))))]/...                   ",
"                     ........}3||1#$$$]1...                     ",
"                       ...................                      ",
"                                                                "};
